<svg width="610" height="610" viewBox="0 0 610 610" fill="none" xmlns="http://www.w3.org/2000/svg">
<path d="M304.99 79.6914C402.705 79.7014 469.613 129.852 512.474 214.642C521.921 212.742 531.497 209.982 541.234 209.142C548.573 208.502 556.442 209.212 563.532 211.231C592.243 219.381 605.804 244.171 597.665 274.731C590.485 301.681 571.692 319.101 546.387 329.651C542.992 331.061 539.037 331.731 535.352 331.701C529.47 331.651 527.882 334.491 527.083 339.821C520.952 380.621 504.644 417.021 478.24 448.621C438.306 496.401 387.156 524.261 325.172 529.451C198.337 540.061 101.98 450.711 83.2961 343.951C82.0179 336.645 78.3361 332.458 72.2512 331.392C50.022 327.542 34.5637 313.871 22.051 296.241C11.8152 281.841 7.98028 265.511 11.0061 248.191C14.691 227.091 32.8562 211.721 55.1155 209.251C68.2172 207.791 80.7901 209.611 93.053 214.211C94.5108 214.761 95.9985 215.231 97.0071 215.581C140.367 129.841 207.275 79.6916 304.99 79.6914ZM301.794 178.062C273.254 150.622 231.271 146.562 199.096 168.132C166.881 189.732 154.997 229.202 169.257 266.422C170.036 268.452 169.417 271.811 168.179 273.711C156.725 291.151 149.525 310.041 148.496 330.961C146.619 369.091 161.678 400.182 189.379 425.352C218.709 451.992 253.99 465.071 293.126 467.331C341.419 470.121 385.009 457.361 421.529 424.571C465.907 384.731 474.416 323.601 442.52 275.331C439.934 271.421 439.734 268.431 441.312 264.081C452.087 234.351 447.713 206.701 427.102 182.812C406.201 158.582 379.138 150.121 347.761 156.451C330.944 159.841 316.953 168.582 305.119 181.102C303.811 179.912 302.783 179.011 301.794 178.062ZM229.265 376.251C233.279 373.541 237.493 374.152 240.259 378.191C253.69 397.831 273.833 404.561 295.943 406.831C313.788 408.661 331.144 405.862 347.352 397.682C355.98 393.332 363.379 387.551 368.822 379.361C372.007 374.571 376.512 373.491 380.506 376.041C384.68 378.701 385.439 383.482 382.104 388.552C370.749 405.802 353.712 414.741 334.479 419.711C324.952 422.161 314.996 422.942 309.254 423.842C281.373 423.052 259.054 417.851 240.36 402.321C235.267 398.091 231.092 392.581 227.148 387.191C224.342 383.351 225.171 379.011 229.265 376.251ZM304.58 294.352C316.733 294.712 323.894 297.961 332.652 301.231C344.046 305.491 346.712 313.041 342.678 324.651C341.899 326.891 340.99 329.111 339.882 331.201C331.494 347.011 315.636 357.221 302.074 355.642C287.175 353.902 271.357 339.361 266.673 323.121C263.697 312.811 266.134 305.651 276.09 301.791C285.157 298.261 292.627 295.062 304.58 294.352ZM554.755 281.291C560.956 260.291 545.667 243.451 524.217 247.151C526.634 268.671 529.011 289.791 531.398 311.071C532.117 310.731 533.684 310.321 534.823 309.401C544.08 301.901 551.31 292.911 554.755 281.291ZM85.7424 247.151C64.9912 243.642 49.6923 259.272 54.7053 279.602C57.811 292.192 65.5511 301.871 75.6272 309.751C76.6358 310.541 78.0237 310.832 78.553 311.052C80.9597 289.642 83.3557 268.401 85.7424 247.151ZM239.81 214.071C248.977 213.991 256.577 221.562 256.467 230.672C256.357 239.542 248.927 247.001 240.11 247.081C231.012 247.171 223.422 239.531 223.502 230.371C223.572 221.411 230.842 214.151 239.81 214.071ZM370.47 214.071C379.397 214.312 386.537 221.741 386.448 230.701C386.348 239.621 379.007 246.981 370.11 247.081C361.112 247.181 353.363 239.371 353.483 230.342C353.603 221.182 361.273 213.831 370.47 214.071Z" fill="black"/>
</svg>
